<svg xmlns="http://www.w3.org/2000/svg" version="1.1" xmlns:xlink="http://www.w3.org/1999/xlink" xmlns:svgjs="http://svgjs.dev/svgjs" width="1440" height="250" preserveAspectRatio="none" viewBox="0 0 1440 250"><g mask="url(&quot;#SvgjsMask1000&quot;)" fill="none"><rect width="1440" height="250" x="0" y="0" fill="#0e2a47"></rect><path d="M23 250L273 0L586.5 0L336.5 250z" fill="url(&quot;#SvgjsLinearGradient1001&quot;)"></path><path d="M271.6 250L521.6 0L721.1 0L471.1 250z" fill="url(&quot;#SvgjsLinearGradient1001&quot;)"></path><path d="M487.20000000000005 250L737.2 0L936.7 0L686.7 250z" fill="url(&quot;#SvgjsLinearGradient1001&quot;)"></path><path d="M757.8000000000001 250L1007.8000000000001 0L1079.8000000000002 0L829.8000000000001 250z" fill="url(&quot;#SvgjsLinearGradient1001&quot;)"></path><path d="M1437 250L1187 0L1041.5 0L1291.5 250z" fill="url(&quot;#SvgjsLinearGradient1002&quot;)"></path><path d="M1194.4 250L944.4000000000001 0L801.9000000000001 0L1051.9 250z" fill="url(&quot;#SvgjsLinearGradient1002&quot;)"></path><path d="M954.8 250L704.8 0L371.79999999999995 0L621.8 250z" fill="url(&quot;#SvgjsLinearGradient1002&quot;)"></path><path d="M702.1999999999999 250L452.19999999999993 0L389.19999999999993 0L639.1999999999999 250z" fill="url(&quot;#SvgjsLinearGradient1002&quot;)"></path><path d="M1236.8222766063432 250L1440 46.822276606343166L1440 250z" fill="url(&quot;#SvgjsLinearGradient1001&quot;)"></path><path d="M0 250L203.17772339365683 250L 0 46.822276606343166z" fill="url(&quot;#SvgjsLinearGradient1002&quot;)"></path></g><defs><mask id="SvgjsMask1000"><rect width="1440" height="250" fill="#ffffff"></rect></mask><linearGradient x1="0%" y1="100%" x2="100%" y2="0%" id="SvgjsLinearGradient1001"><stop stop-color="rgba(15, 70, 185, 0.2)" offset="0"></stop><stop stop-opacity="0" stop-color="rgba(15, 70, 185, 0.2)" offset="0.66"></stop></linearGradient><linearGradient x1="100%" y1="100%" x2="0%" y2="0%" id="SvgjsLinearGradient1002"><stop stop-color="rgba(15, 70, 185, 0.2)" offset="0"></stop><stop stop-opacity="0" stop-color="rgba(15, 70, 185, 0.2)" offset="0.66"></stop></linearGradient></defs></svg>