<svg xmlns="http://www.w3.org/2000/svg" version="1.1" xmlns:xlink="http://www.w3.org/1999/xlink" xmlns:svgjs="http://svgjs.dev/svgjs" width="1440" height="560" preserveAspectRatio="none" viewBox="0 0 1440 560"><g mask="url(&quot;#SvgjsMask1000&quot;)" fill="none"><rect width="1440" height="560" x="0" y="0" fill="#0e2a47"></rect><path d="M0,339.102C62.148,331.686,106.353,280.526,162.47,252.808C227.763,220.558,322.941,227.424,356.719,162.908C390.199,98.96,344.659,21.561,318.829,-45.841C297.468,-101.58,251.108,-139.934,220.927,-191.434C181.791,-258.215,188.402,-367.279,115.391,-392.985C43.609,-418.258,-23.196,-339.888,-88.164,-300.259C-137.875,-269.937,-176.836,-230.011,-218.492,-189.324C-264.341,-144.541,-319.082,-108.275,-344.815,-49.577C-375.421,20.236,-408.311,102.671,-376.966,172.155C-345.619,241.642,-259.16,263.936,-189.459,294.804C-128.932,321.61,-65.731,346.946,0,339.102" fill="#0b2239"></path><path d="M1440 1052.612C1540.65 1051.134 1649.795 1072.618 1733.719 1017.0360000000001 1817.384 961.626 1852.97 857.625 1880.237 761.05 1904.68 674.477 1877.674 586.552 1880.6480000000001 496.644 1884.425 382.438 1969.9969999999998 251.721 1900.0729999999999 161.34500000000003 1831.188 72.31200000000001 1686.251 116.406 1574.71 101.221 1481.4470000000001 88.52499999999998 1392.332 67.99700000000001 1298.915 79.507 1190.9850000000001 92.805 1063.029 89.48200000000003 993.223 172.865 923.402 256.265 973.2950000000001 383.048 955.0319999999999 490.272 936.105 601.396 847.113 707.395 884.039 813.899 921.128 920.873 1036.649 981.073 1140.685 1025.743 1234.635 1066.0819999999999 1337.767 1054.113 1440 1052.612" fill="#113255"></path></g><defs><mask id="SvgjsMask1000"><rect width="1440" height="560" fill="#ffffff"></rect></mask></defs></svg>